<svg width="17" height="16" viewBox="0 0 17 16" fill="none" xmlns="http://www.w3.org/2000/svg">
<path d="M8.58469 0.13813C8.63166 0.100683 8.67342 0.0565253 8.70876 0.00693852H10.8711C11.0341 -0.00231284 11.1975 -0.00231284 11.3606 0.00693852H11.3927C11.8731 0.00551539 12.3478 0.116971 12.7819 0.333144C13.5749 0.659862 14.2609 1.22082 14.7569 1.94822C15.1323 2.49902 15.3877 3.12984 15.5049 3.79592C15.6222 4.46201 15.5985 5.14704 15.4354 5.80241L12.6663 2.93304C12.5477 2.81028 12.3879 2.74149 12.2215 2.74157H8.19138C8.06206 2.74709 7.93746 2.79412 7.83437 2.87631L6.24428 4.14213C6.15882 4.21046 6.06139 4.26045 5.95754 4.28924C5.8537 4.31802 5.74547 4.32504 5.63904 4.3099C5.5326 4.29475 5.43006 4.25774 5.33725 4.20096C5.24444 4.14419 5.16318 4.06878 5.09812 3.97903C5.03345 3.89068 4.98608 3.78976 4.95874 3.68209C4.9314 3.57441 4.92463 3.46212 4.93884 3.35169C4.95304 3.24125 4.98793 3.13487 5.04149 3.03867C5.09505 2.94247 5.16622 2.85837 5.25089 2.79121L8.58469 0.13813ZM4.4187 9.95444L4.40689 9.96597L3.58483 10.824L3.57386 10.8347C3.4299 10.9784 3.23831 11.0577 3.03967 11.0557C2.84102 11.0538 2.65091 10.9707 2.50958 10.824C2.43897 10.7505 2.38292 10.663 2.34467 10.5667C2.30643 10.4703 2.28673 10.3669 2.28673 10.2625C2.28673 10.1581 2.30643 10.0547 2.34467 9.95829C2.38292 9.86191 2.43897 9.77444 2.50958 9.70093L3.33163 8.84286C3.47481 8.69395 3.66818 8.61041 3.86968 8.61041C4.07119 8.61041 4.26455 8.69395 4.40773 8.84286C4.54847 8.98935 4.62855 9.1882 4.6306 9.39629C4.63266 9.60438 4.55652 9.80493 4.4187 9.95444ZM4.1731 11.4596C4.03529 11.6091 3.95915 11.8097 3.9612 12.0178C3.96326 12.2258 4.04334 12.4247 4.18407 12.5712C4.48116 12.8814 4.96308 12.8814 5.26017 12.5712L6.08223 11.7131C6.16191 11.6301 6.22293 11.5295 6.2608 11.4185C6.29868 11.3076 6.31245 11.1891 6.30113 11.0719C6.2898 10.9546 6.25366 10.8415 6.19534 10.7408C6.13702 10.6401 6.058 10.5543 5.96407 10.4898C5.81987 10.3902 5.64781 10.3447 5.47587 10.3608C5.30394 10.3769 5.14225 10.4536 5.0171 10.5785L5.00613 10.5909L4.18407 11.4481L4.1731 11.4596ZM2.39395 7.44762C2.46456 7.52113 2.5206 7.60861 2.55885 7.70499C2.5971 7.80137 2.61679 7.90476 2.61679 8.00917C2.61679 8.11359 2.5971 8.21698 2.55885 8.31336C2.5206 8.40975 2.46456 8.49722 2.39395 8.57073L1.57189 9.42879C1.42871 9.57771 1.23535 9.66125 1.03384 9.66125C0.832337 9.66125 0.638975 9.57771 0.495793 9.42879C0.425184 9.35528 0.369138 9.26781 0.33089 9.17143C0.292642 9.07504 0.272949 8.97166 0.272949 8.86724C0.272949 8.76282 0.292642 8.65943 0.33089 8.56305C0.369138 8.46667 0.425184 8.3792 0.495793 8.30569L1.31785 7.44762C1.46103 7.29871 1.65439 7.21517 1.8559 7.21517C2.05741 7.21517 2.25077 7.29871 2.39395 7.44762ZM7.75588 12.338C7.82649 12.4116 7.88253 12.499 7.92078 12.5954C7.95903 12.6918 7.97872 12.7952 7.97872 12.8996C7.97872 13.004 7.95903 13.1074 7.92078 13.2038C7.88253 13.3002 7.82649 13.3876 7.75588 13.4612L6.93382 14.3192C6.79064 14.4681 6.59728 14.5517 6.39577 14.5517C6.19427 14.5517 6.00091 14.4681 5.85772 14.3192C5.74562 14.2025 5.67128 14.0517 5.64523 13.8882C5.61918 13.7247 5.64273 13.5567 5.71256 13.408L5.7134 13.4062C5.75021 13.3283 5.79897 13.2574 5.85772 13.1961L6.67978 12.338C6.82296 12.1891 7.01632 12.1056 7.21783 12.1056C7.41934 12.1056 7.6127 12.1891 7.75588 12.338ZM2.26228 1.61758C2.82268 1.03284 3.50224 0.589444 4.24966 0.320871C4.99707 0.0522976 5.79281 -0.0344366 6.57681 0.0672158L4.48707 1.73104C4.2694 1.904 4.08645 2.12047 3.94877 2.368C3.81109 2.61552 3.72139 2.8892 3.68483 3.17329C3.64827 3.45737 3.66559 3.74624 3.73577 4.02327C3.80595 4.3003 3.92762 4.56001 4.09376 4.78745C4.42922 5.24668 4.92398 5.54793 5.47011 5.62548C6.01625 5.70304 6.56942 5.55059 7.00894 5.20141L8.43024 4.07122H11.9624L14.9223 7.13826C14.9318 7.15065 14.9419 7.16248 14.9527 7.17372L15.9233 8.19311C16.1416 8.42562 16.2667 8.73722 16.2728 9.06371C16.2789 9.39021 16.1656 9.70674 15.9561 9.94809C15.7467 10.1894 15.4571 10.3372 15.147 10.361C14.8369 10.3848 14.5299 10.2827 14.2893 10.0759L14.2083 9.99079C14.1926 9.97404 14.1756 9.95863 14.1576 9.94469L13.2351 8.97671C13.1962 8.93438 13.1496 8.90062 13.0981 8.87739C13.0467 8.85416 12.9913 8.84193 12.9353 8.84142C12.8792 8.84091 12.8237 8.85212 12.7718 8.87441C12.7199 8.89669 12.6728 8.9296 12.6332 8.97122C12.5936 9.01283 12.5622 9.06232 12.541 9.11679C12.5198 9.17126 12.5091 9.22962 12.5096 9.28847C12.5101 9.34732 12.5217 9.40548 12.5438 9.45955C12.566 9.51363 12.5981 9.56253 12.6384 9.60342L13.609 10.6228C13.6445 10.6592 13.6799 10.6946 13.717 10.7283L13.7542 10.7673C13.8355 10.8508 13.9002 10.9505 13.9445 11.0605C13.9889 11.1704 14.012 11.2885 14.0127 11.408C14.0133 11.5274 13.9913 11.6458 13.9481 11.7563C13.9049 11.8667 13.8412 11.9671 13.7608 12.0516C13.6804 12.136 13.5848 12.2029 13.4796 12.2483C13.3744 12.2937 13.2617 12.3168 13.148 12.3161C13.0343 12.3155 12.9218 12.2911 12.8171 12.2445C12.7124 12.1979 12.6175 12.13 12.538 12.0446L12.3945 11.8948C12.335 11.8325 12.2591 11.7902 12.1766 11.7735C12.094 11.7567 12.0086 11.7663 11.9313 11.8008C11.8539 11.8354 11.7882 11.8934 11.7424 11.9675C11.6967 12.0416 11.6731 12.1283 11.6746 12.2166C11.6732 12.2766 11.6836 12.3362 11.7049 12.3918C11.7262 12.4474 11.7581 12.4979 11.7986 12.5402L11.9868 12.7378C12.0644 12.8145 12.1265 12.9068 12.1695 13.0092C12.2125 13.1116 12.2354 13.222 12.2371 13.3338C12.2387 13.4457 12.2189 13.5568 12.1788 13.6605C12.1388 13.7642 12.0794 13.8584 12.004 13.9375C11.9287 14.0166 11.839 14.079 11.7403 14.1211C11.6416 14.1631 11.5358 14.1839 11.4293 14.1822C11.3228 14.1805 11.2176 14.1564 11.1202 14.1113C11.0227 14.0661 10.9348 14.0009 10.8618 13.9194L10.6736 13.7218C10.6346 13.6803 10.5881 13.6474 10.5369 13.6249C10.4857 13.6025 10.4307 13.5909 10.3752 13.5909C10.3197 13.5909 10.2648 13.6025 10.2136 13.6249C10.1624 13.6474 10.1159 13.6803 10.0769 13.7218C9.99777 13.8049 9.95332 13.9176 9.95332 14.0351C9.95332 14.1526 9.99777 14.2654 10.0769 14.3485L10.2609 14.5426C10.3366 14.6212 10.3969 14.7147 10.4383 14.8177C10.4796 14.9207 10.5013 15.0313 10.5019 15.1431C10.5026 15.255 10.4823 15.3658 10.4421 15.4694C10.402 15.573 10.3429 15.6672 10.268 15.7468C10.1932 15.8264 10.1042 15.8897 10.0061 15.9331C9.90801 15.9766 9.80271 15.9993 9.69624 16C9.58977 16.0007 9.48422 15.9794 9.3856 15.9372C9.28698 15.8951 9.19723 15.8329 9.12147 15.7543L7.91371 14.5488L8.35681 14.0861C8.50606 13.9308 8.62454 13.746 8.7054 13.5424C8.78626 13.3387 8.82789 13.1203 8.82789 12.8996C8.82789 12.679 8.78626 12.4605 8.7054 12.2568C8.62454 12.0532 8.50606 11.8684 8.35681 11.7131C8.1989 11.5484 8.0102 11.4199 7.80261 11.3357C7.59502 11.2515 7.37305 11.2134 7.15073 11.2238C7.16052 10.9912 7.12382 10.7591 7.043 10.5423C6.96218 10.3255 6.83902 10.1289 6.68147 9.96508C6.52369 9.80045 6.33513 9.67197 6.12769 9.58775C5.92024 9.50353 5.69842 9.4654 5.47624 9.47577C5.48596 9.24332 5.44923 9.01131 5.36841 8.79467C5.28758 8.57803 5.16446 8.38157 5.00697 8.21793C4.80635 8.00897 4.55703 7.85897 4.28392 7.7829C4.01081 7.70684 3.72348 7.70738 3.45064 7.78447C3.40374 7.41971 3.24318 7.08153 2.99403 6.82269C2.71637 6.53364 2.34833 6.36015 1.95815 6.3344C1.56798 6.30864 1.18215 6.43237 0.872217 6.68263C0.672885 5.78396 0.695985 4.84665 0.939317 3.96001C1.18265 3.07337 1.6381 2.26695 2.26228 1.61758Z" fill="#3B3B3B"/>
</svg>
