<svg width="16" height="16" viewBox="0 0 16 16" fill="none" xmlns="http://www.w3.org/2000/svg">
<path d="M7.63636 0C6.65638 0 5.71654 0.383598 5.02359 1.06641C4.33064 1.74922 3.94135 2.6753 3.94135 3.64094C3.94135 4.60658 4.33064 5.53267 5.02359 6.21548C5.71654 6.89829 6.65638 7.28189 7.63636 7.28189C8.61634 7.28189 9.55618 6.89829 10.2491 6.21548C10.9421 5.53267 11.3314 4.60658 11.3314 3.64094C11.3314 2.6753 10.9421 1.74922 10.2491 1.06641C9.55618 0.383598 8.61634 0 7.63636 0ZM3.69501 9.22372C2.71504 9.22372 1.77519 9.60732 1.08224 10.2901C0.389295 10.9729 0 11.899 0 12.8647V14.0181C0 14.7502 0.537994 15.3735 1.27108 15.491C5.48636 16.1697 9.78637 16.1697 14.0016 15.491C14.3564 15.4341 14.6791 15.2547 14.912 14.9848C15.1449 14.715 15.2727 14.3723 15.2727 14.0181V12.8647C15.2727 11.899 14.8834 10.9729 14.1905 10.2901C13.4975 9.60732 12.5577 9.22372 11.5777 9.22372H11.2427C11.0604 9.22372 10.8791 9.25285 10.7067 9.30722L9.85337 9.58199C8.41277 10.0453 6.85996 10.0453 5.41935 9.58199L4.56605 9.30722C4.39328 9.25182 4.21271 9.22364 4.03101 9.22372H3.69501Z" fill="#3B3B3B"/>
</svg>
