<svg width="15" height="16" viewBox="0 0 15 16" fill="none" xmlns="http://www.w3.org/2000/svg">
<path d="M4.89449 7.13163L2.5834 16H0.625167C0.389925 16 0.219851 15.7686 0.288199 15.5389L3.44012 3.19176L4.89449 7.13325V7.13163Z" fill="#3B3B3B"/>
<path d="M14.2693 0.138712L10.7041 13.7883L9.28787 9.92449L11.3272 2.06092H10.5817C10.4752 2.06092 10.4402 1.91368 10.5356 1.86514L14.1167 0.0125066C14.1993 -0.0311799 14.2931 0.046485 14.2693 0.138712Z" fill="#3B3B3B"/>
<path d="M7.59816 9.14459C7.47895 9.60087 7.35497 10.0555 7.23417 10.5102C7.19443 10.6558 7.15787 10.8031 7.11655 10.9487C7.07681 11.0911 6.97667 11.1801 6.86382 11.1784C6.78435 11.1784 6.72236 11.138 6.67944 11.0522L6.66355 11.0166C6.65719 10.9972 6.64924 10.9778 6.64447 10.9552C6.62381 10.8759 6.6254 10.7901 6.62381 10.7076C6.62222 10.5539 6.57295 10.5053 6.42513 10.5248C6.38857 10.5296 6.35042 10.5361 6.31227 10.5393C6.16604 10.5539 6.04365 10.4439 6.04365 10.295C6.04365 10.2238 6.0516 10.1542 6.05319 10.083C6.05319 10.0491 6.05478 10.0135 6.0516 9.9811C6.03729 9.86622 5.9308 9.79341 5.82113 9.82254C5.77026 9.83548 5.71781 9.85328 5.66695 9.85975C5.50005 9.88402 5.41899 9.81607 5.40945 9.64617C5.40468 9.56042 5.41263 9.47305 5.40945 9.38729C5.40309 9.22387 5.35382 9.17533 5.19169 9.16724C5.16308 9.16724 5.13606 9.164 5.10745 9.16077C4.95963 9.13973 4.86108 8.99897 4.88493 8.85011C4.90718 8.70934 4.9485 8.57181 4.99619 8.43751C5.08679 8.18025 5.19169 7.92784 5.28706 7.67219C5.36654 7.45538 5.36018 7.21591 5.27276 7.00233C5.2362 6.91334 5.20123 6.82435 5.16785 6.73536L5.07407 6.47971L5.02321 6.34056C5.02321 6.32923 5.01844 6.31953 5.01367 6.3082L4.98824 6.24671L3.71666 2.77606H5.71463C5.73847 2.77606 5.76232 2.77768 5.78457 2.78253C5.78457 2.78253 5.78616 2.78253 5.78775 2.78253C5.84497 2.80195 5.91331 2.85535 5.96895 2.86991C5.96895 2.86991 5.97213 2.87153 5.97371 2.87314L6.00868 2.90874C6.03888 2.94272 6.06431 2.98155 6.0818 3.02524L7.90016 7.52657C7.66968 7.41492 7.36291 7.25798 7.12608 7.16251C6.82567 7.04116 6.53003 7.24989 6.51255 7.57834C6.49983 7.79516 6.57295 7.97961 6.75256 8.10744C6.95124 8.2482 7.1531 8.38574 7.35497 8.52327C7.67922 8.74655 7.69511 8.77244 7.59975 9.14459H7.59816Z" fill="#3B3B3B"/>
<path d="M5.07416 6.47806L5.16794 6.73371C5.13615 6.65119 5.10436 6.56867 5.07257 6.48454C5.05667 6.44247 5.04078 6.4004 5.02488 6.35995C5.02488 6.35348 5.02488 6.34539 5.02488 6.33891L5.07575 6.47806H5.07416Z" fill="#3B3B3B"/>
<path d="M10.4735 14.3464H8.16245L6.91949 11.4453C6.98942 11.4485 6.99101 11.4307 7.06095 11.3951C7.22307 11.3142 7.32003 11.1783 7.36772 11.0019C7.48057 10.5699 7.59819 10.1379 7.71104 9.70428C7.77621 9.45672 7.83979 9.20917 7.89224 8.95837C7.93357 8.75774 7.86681 8.58623 7.7031 8.46164C7.58389 8.37103 7.45991 8.28689 7.33752 8.19952C7.18811 8.09435 7.03552 7.99403 6.8877 7.88401C6.76531 7.79178 6.72557 7.60571 6.79392 7.48436C6.85432 7.37918 6.96081 7.35815 7.12453 7.43582C7.50759 7.61703 7.88906 7.79987 8.26577 7.9908C8.67903 8.19952 8.77281 8.39207 8.69334 8.85805C8.66473 9.02309 8.63453 9.18813 8.60274 9.35317H8.60433L9.09706 10.6185L10.472 14.3448L10.4735 14.3464Z" fill="#3B3B3B"/>
</svg>
